PathFileType	4	(X/Y/Z)	 s10c0403.trc
DataRate	CameraRate	NumFrames	NumMarkers	Units	OrigDataRate	OrigDataStartFrame	OrigNumFrames
200	200	4	49	mm	200	1251	2000
Frame#	Time	racr			lacr			c7			jug			rlel			rdr			llel			ldr			s2			lic			ric			lasi			rasi			rpsi			lpsi			rgt			lgt			rth1			rth2			rth3			rth4			rlfc			rmfc			rsh1			rsh2			rsh3			rsh4			rlmal			rmmal			rcal			rtoe			rmt5			lth1			lth2			lth4			lth3			llfc			lmfc			llmal			lcal			lmt5			lsh1			lsh2			lsh3			lsh4			ltoe			SBIKE			LBIKE			RBIKE			
		X1	Y1	Z1	X2	Y2	Z2	X3	Y3	Z3	X4	Y4	Z4	X5	Y5	Z5	X6	Y6	Z6	X7	Y7	Z7	X8	Y8	Z8	X9	Y9	Z9	X10	Y10	Z10	X11	Y11	Z11	X12	Y12	Z12	X13	Y13	Z13	X14	Y14	Z14	X15	Y15	Z15	X16	Y16	Z16	X17	Y17	Z17	X18	Y18	Z18	X19	Y19	Z19	X20	Y20	Z20	X21	Y21	Z21	X22	Y22	Z22	X23	Y23	Z23	X24	Y24	Z24	X25	Y25	Z25	X26	Y26	Z26	X27	Y27	Z27	X28	Y28	Z28	X29	Y29	Z29	X30	Y30	Z30	X31	Y31	Z31	X32	Y32	Z32	X33	Y33	Z33	X34	Y34	Z34	X35	Y35	Z35	X36	Y36	Z36	X37	Y37	Z37	X38	Y38	Z38	X39	Y39	Z39	X40	Y40	Z40	X41	Y41	Z41	X42	Y42	Z42	X43	Y43	Z43	X44	Y44	Z44	X45	Y45	Z45	X46	Y46	Z46	X47	Y47	Z47	X48	Y48	Z48	X49	Y49	Z49	
1251	6.2550	603.225441	1363.767577	-51.284049	686.893048	1352.785948	-346.832680	629.142066	1375.318226	-198.488891	647.739254	1229.420452	-191.680877	529.933847	1103.298187	49.054628	621.771039	909.455301	3.733824	595.509183	1103.157693	-485.425928	653.469285	909.707099	-403.405690	131.814028	1131.552615	-163.269004	263.413477	1132.579585	-340.880193	337.203881	1118.726340	-78.307149	275.723267	1053.207233	-323.769229	331.318686	1040.526443	-81.361081	193.483116	1181.274728	-119.475214	172.659133	1194.803612	-229.057806	230.822067	1024.904608	4.962782	152.374967	1023.254310	-372.717382	260.762095	880.659133	17.666557	291.877241	800.649419	-4.442236	280.336054	716.073962	-9.122351	325.443941	808.315786	-18.860473	288.741706	609.773270	-25.417625	268.434659	606.346005	-140.685895	192.349811	538.082301	0.408811	161.718318	456.183744	-15.658878	95.619265	401.629883	-25.646258	190.091148	440.633703	-37.436002	40.035871	321.645627	-43.122018	66.982113	321.577145	-122.880069	-2.617927	347.394429	-95.010343	138.598929	149.744158	-96.042392	64.530543	193.139231	-35.007541	262.315150	949.153432	-389.622644	349.213008	948.669417	-384.239493	358.791934	982.839644	-375.105308	425.092796	903.325037	-385.813449	531.833875	877.800068	-373.145308	542.225371	861.213067	-243.915263	286.833746	581.127299	-371.630650	226.793028	583.751473	-331.010738	328.195420	435.800694	-382.936829	453.552290	790.922744	-398.888756	423.451023	708.570122	-391.207375	352.462662	654.072991	-387.480662	448.132229	692.217131	-367.213381	400.910880	412.392329	-325.400384	-204.276264	832.022673	-224.474209	-78.120453	82.001608	-423.760091	-102.599732	80.781607	-24.372078	
1252	6.2600	603.651350	1363.594467	-50.637958	688.397646	1351.085517	-346.322950	630.001651	1375.400624	-198.124359	647.291572	1228.971049	-190.808205	530.698150	1103.367046	49.205808	621.793407	909.390044	3.253747	594.614151	1102.910579	-485.646839	653.406029	909.781431	-403.267444	130.779773	1134.289947	-165.980945	263.259125	1134.530160	-342.491634	335.366637	1121.506357	-78.556397	275.135653	1054.412544	-324.383005	330.585848	1043.643857	-81.159145	192.627298	1183.663039	-122.366852	172.521673	1197.209043	-231.595177	229.647777	1028.113700	3.617272	152.464906	1024.666675	-373.933963	262.114106	883.368294	16.879361	295.679754	804.183080	-4.765971	286.509900	719.197142	-8.938796	328.934424	812.673346	-19.194771	296.671672	612.806983	-24.758543	278.187118	608.097912	-140.000744	198.665744	542.956059	1.136933	166.472716	461.743606	-14.837708	99.311591	408.449593	-24.988343	194.690415	445.563693	-36.428823	42.379916	329.326236	-42.273223	69.924309	328.948253	-122.316065	1.769480	358.142373	-94.484592	130.334547	151.846739	-96.400828	59.139505	199.405920	-35.327055	260.367354	948.576675	-390.298456	347.297457	946.690854	-385.246031	357.474017	980.726453	-376.402163	422.404482	899.814832	-386.372153	529.934290	872.332923	-372.630767	538.227983	857.163173	-245.085512	288.008273	572.317239	-372.356405	227.651121	572.692435	-331.518491	334.437048	428.679969	-383.163699	452.417234	784.749533	-399.754467	422.766983	702.246081	-391.700479	352.366384	647.094546	-388.322881	447.589794	686.090844	-367.849989	408.134190	408.244506	-325.237648	-204.253256	832.037062	-224.490709	-78.133335	82.027903	-423.754630	-102.607920	80.806052	-24.380594	
1253	6.2650	604.218187	1363.344708	-49.847045	689.749885	1349.485523	-345.517139	630.831318	1375.573238	-197.545687	646.823424	1228.558498	-189.930697	531.460322	1103.412020	49.347587	621.774885	909.339154	2.716486	593.740210	1102.716842	-485.678659	652.974211	910.861979	-405.246580	129.407047	1137.064982	-168.700862	263.431912	1136.473720	-344.593644	333.510467	1124.035782	-78.767855	274.788255	1055.408252	-325.093048	329.875574	1046.456403	-81.103501	192.273927	1185.374785	-125.640889	172.321331	1199.517342	-234.373418	228.431875	1031.560469	2.096878	152.465434	1025.941836	-375.333380	263.515391	885.958565	16.086352	299.351355	807.547317	-5.259551	292.904310	722.486569	-8.702198	332.424460	817.186387	-19.428362	304.849672	615.887945	-24.244773	287.761174	610.064039	-139.457278	205.392462	547.907403	1.716173	171.661496	467.417990	-13.961153	103.458060	415.426288	-24.125187	199.582470	450.604965	-35.389542	44.702964	336.747528	-41.399873	73.519317	335.807185	-121.404077	6.612177	368.298921	-93.840743	122.363236	154.720618	-96.479182	53.975722	206.103136	-35.652471	258.803164	948.269651	-391.727643	345.263026	944.392455	-386.283390	356.083369	978.230348	-377.600012	419.498967	896.112955	-387.197313	527.545418	866.169788	-373.090779	534.702133	852.225128	-245.730647	288.785646	563.020713	-373.417143	228.171477	561.134383	-331.975782	340.283729	420.698887	-382.781403	450.556539	777.706986	-400.515756	421.608996	695.096099	-392.176911	351.882213	639.091792	-388.981312	446.741396	679.083386	-368.200551	414.612974	403.476954	-325.059502	-204.226042	832.057493	-224.516767	-78.135471	82.007235	-423.796370	-102.599306	80.816409	-24.399178	
1254	6.2700	604.992374	1363.060305	-48.973423	690.856347	1348.086867	-344.394866	631.546756	1375.824642	-196.997931	646.389918	1228.192018	-188.999426	532.260012	1103.374627	49.504223	621.736341	909.235064	2.143874	592.917014	1102.654929	-485.609617	652.950023	910.995319	-405.007830	128.475966	1139.337078	-171.478676	263.476390	1138.041885	-346.690523	331.672777	1126.483865	-78.798205	274.664582	1056.377461	-325.614605	328.932274	1048.877887	-80.863196	191.173558	1187.273961	-128.261890	172.173214	1201.529334	-237.092113	227.089358	1035.094163	1.127231	152.256446	1027.089135	-376.517071	264.906267	888.454800	15.314491	303.211946	811.178273	-5.530317	299.240666	725.908887	-8.626198	335.806513	821.622342	-19.464247	313.106567	619.013437	-23.928515	297.442686	612.198762	-138.960195	212.531670	552.934961	2.387508	177.199041	473.193660	-13.106733	107.981267	422.438372	-23.191879	204.793786	455.657419	-34.669780	46.935282	343.920321	-40.609903	76.698177	342.722216	-120.543047	11.362634	378.717377	-92.107670	113.686288	157.604919	-97.546645	49.174050	213.002851	-35.740104	256.809200	947.484575	-392.584375	343.135113	941.807391	-387.199437	354.627667	975.595498	-378.708612	416.418083	892.085798	-387.800864	524.781039	859.197256	-373.614965	531.059460	846.328533	-246.523374	289.399621	552.189044	-373.570733	228.542449	548.885784	-332.839891	345.587490	412.673284	-382.714126	448.013197	769.823835	-401.151581	420.004846	687.010474	-392.479715	350.955726	630.051605	-389.506040	445.343256	671.306875	-368.547303	420.420197	398.348133	-324.799219	-204.213129	832.056775	-224.564241	-78.130640	82.015302	-423.770742	-102.611571	80.806879	-24.406368	
